<svg width="80" height="80" viewBox="0 0 80 80" fill="none" xmlns="http://www.w3.org/2000/svg">
<g filter="url(#filter0_ii_158_1523)">
<rect width="80" height="80" rx="12" fill="#0040FF"/>
<path d="M58.9615 35.1474C58.5364 35.2185 58.157 35.4556 57.9068 35.8064C57.6565 36.1572 57.5558 36.5931 57.6269 37.0182C57.7919 38.0035 57.8748 39.0009 57.8747 40C57.8786 44.3757 56.2704 48.5995 53.3573 51.8646C51.5449 49.2383 48.9965 47.2065 46.0326 46.0247C47.6247 44.7707 48.7865 43.0517 49.3564 41.1068C49.9262 39.1619 49.8759 37.0878 49.2123 35.1729C48.5487 33.2579 47.3049 31.5973 45.6538 30.4221C44.0027 29.2468 42.0264 28.6152 39.9998 28.6152C37.9731 28.6152 35.9968 29.2468 34.3457 30.4221C32.6946 31.5973 31.4508 33.2579 30.7872 35.1729C30.1236 37.0878 30.0733 39.1619 30.6431 41.1068C31.213 43.0517 32.3748 44.7707 33.9669 46.0247C31.003 47.2065 28.4546 49.2383 26.6422 51.8646C24.3565 49.2889 22.8635 46.1077 22.3426 42.7037C21.8217 39.2997 22.2952 35.8176 23.7062 32.6763C25.1171 29.5349 27.4054 26.868 30.2959 24.9962C33.1864 23.1244 36.5561 22.1274 39.9998 22.125C40.9989 22.1249 41.9962 22.2078 42.9816 22.3728C43.4048 22.4396 43.8371 22.3366 44.1847 22.0862C44.5323 21.8358 44.7669 21.4583 44.8376 21.0358C44.9083 20.6133 44.8093 20.18 44.5622 19.8301C44.315 19.4803 43.9397 19.2421 43.5179 19.1675C39.1049 18.4251 34.5701 19.1044 30.5683 21.1073C26.5665 23.1102 23.3048 26.3331 21.2541 30.3105C19.2034 34.288 18.4698 38.8143 19.1593 43.2359C19.8487 47.6575 21.9255 51.7456 25.0899 54.9099C28.2542 58.0742 32.3423 60.1511 36.7638 60.8405C41.1854 61.53 45.7117 60.7964 49.6892 58.7457C53.6667 56.6949 56.8896 53.4332 58.8925 49.4315C60.8954 45.4297 61.5746 40.8949 60.8322 36.4819C60.7611 36.0569 60.5241 35.6775 60.1732 35.4272C59.8224 35.1769 59.3865 35.0763 58.9615 35.1474ZM33.4998 38.375C33.4998 37.0894 33.881 35.8327 34.5952 34.7638C35.3094 33.6949 36.3246 32.8618 37.5123 32.3698C38.7 31.8778 40.007 31.7491 41.2678 31.9999C42.5287 32.2507 43.6869 32.8698 44.5959 33.7788C45.505 34.6879 46.1241 35.8461 46.3749 37.1069C46.6257 38.3678 46.4969 39.6747 46.005 40.8625C45.513 42.0502 44.6799 43.0653 43.611 43.7796C42.542 44.4938 41.2853 44.875 39.9998 44.875C38.2758 44.875 36.6225 44.1902 35.4036 42.9712C34.1846 41.7522 33.4998 40.0989 33.4998 38.375ZM29.0472 54.1172C30.2228 52.2787 31.8423 50.7657 33.7563 49.7176C35.6704 48.6696 37.8175 48.1203 39.9998 48.1203C42.182 48.1203 44.3291 48.6696 46.2432 49.7176C48.1572 50.7657 49.7767 52.2787 50.9523 54.1172C47.8207 56.5527 43.9668 57.8749 39.9998 57.8749C36.0327 57.8749 32.1788 56.5527 29.0472 54.1172Z" fill="white"/>
<path d="M53.1119 20.3019C53.5093 19.4967 54.6574 19.4967 55.0548 20.3019L56.06 22.3386C56.2178 22.6583 56.5228 22.8799 56.8756 22.9312L59.1233 23.2578C60.0118 23.3869 60.3666 24.4789 59.7236 25.1056L58.0973 26.691C57.8419 26.9399 57.7254 27.2984 57.7857 27.6499L58.1696 29.8884C58.3214 30.7734 57.3925 31.4482 56.5978 31.0304L54.5875 29.9735C54.2719 29.8076 53.8948 29.8076 53.5792 29.9735L51.5689 31.0304C50.7741 31.4482 49.8452 30.7734 49.997 29.8884L50.381 27.6499C50.4412 27.2984 50.3247 26.9399 50.0694 26.691L48.443 25.1056C47.8 24.4789 48.1548 23.3869 49.0434 23.2578L51.291 22.9312C51.6439 22.8799 51.9489 22.6583 52.1067 22.3386L53.1119 20.3019Z" fill="white"/>
</g>
<defs>
<filter id="filter0_ii_158_1523" x="-6" y="-6" width="92" height="92" filterUnits="userSpaceOnUse" color-interpolation-filters="sRGB">
<feFlood flood-opacity="0" result="BackgroundImageFix"/>
<feBlend mode="normal" in="SourceGraphic" in2="BackgroundImageFix" result="shape"/>
<feColorMatrix in="SourceAlpha" type="matrix" values="0 0 0 0 0 0 0 0 0 0 0 0 0 0 0 0 0 0 127 0" result="hardAlpha"/>
<feOffset dx="-6" dy="-6"/>
<feGaussianBlur stdDeviation="12"/>
<feComposite in2="hardAlpha" operator="arithmetic" k2="-1" k3="1"/>
<feColorMatrix type="matrix" values="0 0 0 0 0 0 0 0 0 0 0 0 0 0 0 0 0 0 0.5 0"/>
<feBlend mode="multiply" in2="shape" result="effect1_innerShadow_158_1523"/>
<feColorMatrix in="SourceAlpha" type="matrix" values="0 0 0 0 0 0 0 0 0 0 0 0 0 0 0 0 0 0 127 0" result="hardAlpha"/>
<feOffset dx="6" dy="6"/>
<feGaussianBlur stdDeviation="8"/>
<feComposite in2="hardAlpha" operator="arithmetic" k2="-1" k3="1"/>
<feColorMatrix type="matrix" values="0 0 0 0 1 0 0 0 0 1 0 0 0 0 1 0 0 0 0.35 0"/>
<feBlend mode="plus-lighter" in2="effect1_innerShadow_158_1523" result="effect2_innerShadow_158_1523"/>
</filter>
</defs>
</svg>
