<svg width="80" height="80" viewBox="0 0 80 80" fill="none" xmlns="http://www.w3.org/2000/svg">
<g filter="url(#filter0_ii_158_1534)">
<rect width="80" height="80" rx="12" fill="#0040FF"/>
<path d="M40 18.875C35.8219 18.875 31.7376 20.114 28.2636 22.4352C24.7896 24.7564 22.082 28.0557 20.4831 31.9158C18.8842 35.7759 18.4658 40.0234 19.2809 44.1213C20.096 48.2191 22.108 51.9832 25.0624 54.9376C28.0168 57.892 31.7809 59.904 35.8787 60.7191C39.9766 61.5342 44.2241 61.1159 48.0842 59.517C51.9443 57.918 55.2436 55.2104 57.5648 51.7364C59.886 48.2624 61.125 44.1781 61.125 40C61.1191 34.3991 58.8915 29.0293 54.9311 25.0689C50.9707 21.1085 45.6009 18.8809 40 18.875ZM40 57.875C36.4647 57.875 33.0087 56.8266 30.0692 54.8625C27.1297 52.8984 24.8386 50.1067 23.4857 46.8405C22.1327 43.5742 21.7788 39.9802 22.4685 36.5128C23.1582 33.0454 24.8606 29.8603 27.3605 27.3605C29.8603 24.8606 33.0454 23.1582 36.5128 22.4685C39.9802 21.7788 43.5742 22.1327 46.8405 23.4857C50.1067 24.8386 52.8984 27.1297 54.8625 30.0692C56.8267 33.0087 57.875 36.4647 57.875 40C57.8696 44.7391 55.9846 49.2825 52.6336 52.6336C49.2826 55.9846 44.7391 57.8696 40 57.875ZM48.125 44.0625C48.125 45.5709 47.5258 47.0176 46.4592 48.0842C45.3926 49.1508 43.9459 49.75 42.4375 49.75H41.625V51.375C41.625 51.806 41.4538 52.2193 41.1491 52.524C40.8443 52.8288 40.431 53 40 53C39.569 53 39.1557 52.8288 38.851 52.524C38.5462 52.2193 38.375 51.806 38.375 51.375V49.75H35.125C34.694 49.75 34.2807 49.5788 33.976 49.274C33.6712 48.9693 33.5 48.556 33.5 48.125C33.5 47.694 33.6712 47.2807 33.976 46.9759C34.2807 46.6712 34.694 46.5 35.125 46.5H42.4375C43.084 46.5 43.704 46.2432 44.1611 45.7861C44.6182 45.3289 44.875 44.709 44.875 44.0625C44.875 43.416 44.6182 42.796 44.1611 42.3389C43.704 41.8818 43.084 41.625 42.4375 41.625H37.5625C36.0541 41.625 34.6075 41.0258 33.5408 39.9592C32.4742 38.8926 31.875 37.4459 31.875 35.9375C31.875 34.4291 32.4742 32.9824 33.5408 31.9158C34.6075 30.8492 36.0541 30.25 37.5625 30.25H38.375V28.625C38.375 28.194 38.5462 27.7807 38.851 27.476C39.1557 27.1712 39.569 27 40 27C40.431 27 40.8443 27.1712 41.1491 27.476C41.4538 27.7807 41.625 28.194 41.625 28.625V30.25H44.875C45.306 30.25 45.7193 30.4212 46.0241 30.726C46.3288 31.0307 46.5 31.444 46.5 31.875C46.5 32.306 46.3288 32.7193 46.0241 33.024C45.7193 33.3288 45.306 33.5 44.875 33.5H37.5625C36.916 33.5 36.2961 33.7568 35.8389 34.2139C35.3818 34.671 35.125 35.291 35.125 35.9375C35.125 36.584 35.3818 37.204 35.8389 37.6611C36.2961 38.1182 36.916 38.375 37.5625 38.375H42.4375C43.9459 38.375 45.3926 38.9742 46.4592 40.0408C47.5258 41.1074 48.125 42.5541 48.125 44.0625Z" fill="white"/>
</g>
<defs>
<filter id="filter0_ii_158_1534" x="-6" y="-6" width="92" height="92" filterUnits="userSpaceOnUse" color-interpolation-filters="sRGB">
<feFlood flood-opacity="0" result="BackgroundImageFix"/>
<feBlend mode="normal" in="SourceGraphic" in2="BackgroundImageFix" result="shape"/>
<feColorMatrix in="SourceAlpha" type="matrix" values="0 0 0 0 0 0 0 0 0 0 0 0 0 0 0 0 0 0 127 0" result="hardAlpha"/>
<feOffset dx="-6" dy="-6"/>
<feGaussianBlur stdDeviation="12"/>
<feComposite in2="hardAlpha" operator="arithmetic" k2="-1" k3="1"/>
<feColorMatrix type="matrix" values="0 0 0 0 0 0 0 0 0 0 0 0 0 0 0 0 0 0 0.5 0"/>
<feBlend mode="multiply" in2="shape" result="effect1_innerShadow_158_1534"/>
<feColorMatrix in="SourceAlpha" type="matrix" values="0 0 0 0 0 0 0 0 0 0 0 0 0 0 0 0 0 0 127 0" result="hardAlpha"/>
<feOffset dx="6" dy="6"/>
<feGaussianBlur stdDeviation="8"/>
<feComposite in2="hardAlpha" operator="arithmetic" k2="-1" k3="1"/>
<feColorMatrix type="matrix" values="0 0 0 0 1 0 0 0 0 1 0 0 0 0 1 0 0 0 0.35 0"/>
<feBlend mode="plus-lighter" in2="effect1_innerShadow_158_1534" result="effect2_innerShadow_158_1534"/>
</filter>
</defs>
</svg>
