<svg width="80" height="80" viewBox="0 0 80 80" fill="none" xmlns="http://www.w3.org/2000/svg">
<g filter="url(#filter0_ii_158_1538)">
<rect width="80" height="80" rx="12" fill="#0040FF"/>
<path d="M53.8125 37.5625C53.8125 38.0446 53.6695 38.5159 53.4017 38.9167C53.1339 39.3175 52.7532 39.63 52.3078 39.8145C51.8624 39.9989 51.3723 40.0472 50.8995 39.9532C50.4266 39.8591 49.9923 39.627 49.6514 39.2861C49.3105 38.9452 49.0784 38.5109 48.9843 38.038C48.8903 37.5652 48.9386 37.0751 49.123 36.6297C49.3075 36.1843 49.62 35.8036 50.0208 35.5358C50.4216 35.268 50.8929 35.125 51.375 35.125C52.0215 35.125 52.6415 35.3818 53.0986 35.8389C53.5557 36.296 53.8125 36.916 53.8125 37.5625ZM45.6875 27H37.5625C37.1315 27 36.7182 27.1712 36.4135 27.476C36.1087 27.7807 35.9375 28.194 35.9375 28.625C35.9375 29.056 36.1087 29.4693 36.4135 29.774C36.7182 30.0788 37.1315 30.25 37.5625 30.25H45.6875C46.1185 30.25 46.5318 30.0788 46.8366 29.774C47.1413 29.4693 47.3125 29.056 47.3125 28.625C47.3125 28.194 47.1413 27.7807 46.8366 27.476C46.5318 27.1712 46.1185 27 45.6875 27ZM65.1875 36.75V43.25C65.1875 44.5429 64.6739 45.7829 63.7597 46.6971C62.8454 47.6114 61.6054 48.125 60.3125 48.125H59.8331L56.5405 57.3428C56.315 57.9742 55.8999 58.5204 55.3519 58.9066C54.8038 59.2928 54.1498 59.5001 53.4794 59.5H50.8956C50.2252 59.5001 49.5712 59.2928 49.0232 58.9066C48.4751 58.5204 48.06 57.9742 47.8345 57.3428L47.4445 56.25H35.8055L35.4155 57.3428C35.19 57.9742 34.7749 58.5204 34.2269 58.9066C33.6788 59.2928 33.0248 59.5001 32.3544 59.5H29.7706C29.1002 59.5001 28.4462 59.2928 27.8982 58.9066C27.3501 58.5204 26.935 57.9742 26.7095 57.3428L24.1563 50.2009C21.7272 47.4518 20.2063 44.0198 19.8013 40.3737C19.2768 40.6492 18.8377 41.0627 18.5312 41.5697C18.2248 42.0766 18.0627 42.6576 18.0625 43.25C18.0625 43.681 17.8913 44.0943 17.5865 44.399C17.2818 44.7038 16.8685 44.875 16.4375 44.875C16.0065 44.875 15.5932 44.7038 15.2885 44.399C14.9837 44.0943 14.8125 43.681 14.8125 43.25C14.815 41.8008 15.3017 40.3941 16.1952 39.2532C17.0888 38.1123 18.338 37.3027 19.7444 36.9531C20.1074 32.4749 22.1413 28.2969 25.4422 25.2489C28.7431 22.2009 33.0696 20.5057 37.5625 20.5H58.6875C59.1185 20.5 59.5318 20.6712 59.8366 20.976C60.1413 21.2807 60.3125 21.694 60.3125 22.125C60.3125 22.556 60.1413 22.9693 59.8366 23.274C59.5318 23.5788 59.1185 23.75 58.6875 23.75H54.3427C57.0394 25.6421 59.1604 28.2432 60.4709 31.2656C60.5583 31.4688 60.6436 31.6719 60.7248 31.875C61.945 31.9786 63.0815 32.5376 63.9084 33.4408C64.7353 34.3441 65.1919 35.5254 65.1875 36.75ZM61.9375 36.75C61.9375 36.319 61.7663 35.9057 61.4616 35.601C61.1568 35.2962 60.7435 35.125 60.3125 35.125H59.5691C59.223 35.1254 58.8858 35.0152 58.6067 34.8106C58.3275 34.606 58.121 34.3176 58.0172 33.9875C57.0862 31.0165 55.23 28.4207 52.7197 26.579C50.2093 24.7373 47.176 23.7461 44.0625 23.75H37.5625C34.7243 23.7499 31.9473 24.5756 29.5703 26.1264C27.1932 27.6773 25.3188 29.8864 24.1756 32.4842C23.0324 35.082 22.6698 37.9563 23.132 40.7567C23.5942 43.557 24.8612 46.1623 26.7786 48.255C26.9252 48.4145 27.0385 48.6016 27.1117 48.8055L29.7706 56.25H32.3544L33.1303 54.0786C33.243 53.7631 33.4504 53.4901 33.7242 53.297C33.998 53.1039 34.3248 53.0002 34.6598 53H48.5902C48.9252 53.0002 49.252 53.1039 49.5258 53.297C49.7996 53.4901 50.007 53.7631 50.1197 54.0786L50.8956 56.25H53.4794L57.158 45.9536C57.2706 45.6381 57.4781 45.3651 57.7519 45.172C58.0257 44.9789 58.3525 44.8752 58.6875 44.875H60.3125C60.7435 44.875 61.1568 44.7038 61.4616 44.399C61.7663 44.0943 61.9375 43.681 61.9375 43.25V36.75Z" fill="white"/>
</g>
<defs>
<filter id="filter0_ii_158_1538" x="-6" y="-6" width="92" height="92" filterUnits="userSpaceOnUse" color-interpolation-filters="sRGB">
<feFlood flood-opacity="0" result="BackgroundImageFix"/>
<feBlend mode="normal" in="SourceGraphic" in2="BackgroundImageFix" result="shape"/>
<feColorMatrix in="SourceAlpha" type="matrix" values="0 0 0 0 0 0 0 0 0 0 0 0 0 0 0 0 0 0 127 0" result="hardAlpha"/>
<feOffset dx="-6" dy="-6"/>
<feGaussianBlur stdDeviation="12"/>
<feComposite in2="hardAlpha" operator="arithmetic" k2="-1" k3="1"/>
<feColorMatrix type="matrix" values="0 0 0 0 0 0 0 0 0 0 0 0 0 0 0 0 0 0 0.5 0"/>
<feBlend mode="multiply" in2="shape" result="effect1_innerShadow_158_1538"/>
<feColorMatrix in="SourceAlpha" type="matrix" values="0 0 0 0 0 0 0 0 0 0 0 0 0 0 0 0 0 0 127 0" result="hardAlpha"/>
<feOffset dx="6" dy="6"/>
<feGaussianBlur stdDeviation="8"/>
<feComposite in2="hardAlpha" operator="arithmetic" k2="-1" k3="1"/>
<feColorMatrix type="matrix" values="0 0 0 0 1 0 0 0 0 1 0 0 0 0 1 0 0 0 0.35 0"/>
<feBlend mode="plus-lighter" in2="effect1_innerShadow_158_1538" result="effect2_innerShadow_158_1538"/>
</filter>
</defs>
</svg>
