<svg width="80" height="80" viewBox="0 0 80 80" fill="none" xmlns="http://www.w3.org/2000/svg">
<g filter="url(#filter0_ii_158_1529)">
<rect width="80" height="80" rx="12" fill="#0040FF"/>
<path d="M59.0769 30.8785C61.3319 35.5947 61.76 40.979 60.2785 45.9922C58.7971 51.0054 55.5112 55.2922 51.055 58.0252C46.5988 60.7581 41.2882 61.7436 36.1481 60.7913C31.0081 59.839 26.403 57.0166 23.2216 52.8686C20.0402 48.7206 18.508 43.5412 18.9208 38.33C19.3336 33.1188 21.6621 28.2453 25.4569 24.6499C29.2517 21.0545 34.2437 18.9923 39.4696 18.8612C44.6955 18.73 49.7847 20.5393 53.7551 23.9398L58.3599 19.3329C58.6648 19.028 59.0784 18.8567 59.5096 18.8567C59.9408 18.8567 60.3544 19.028 60.6593 19.3329C60.9642 19.6378 61.1355 20.0514 61.1355 20.4826C61.1355 20.9138 60.9642 21.3274 60.6593 21.6323L41.1593 41.1323C40.8544 41.4372 40.4408 41.6085 40.0096 41.6085C39.5784 41.6085 39.1648 41.4372 38.8599 41.1323C38.555 40.8274 38.3837 40.4138 38.3837 39.9826C38.3837 39.5514 38.555 39.1378 38.8599 38.8329L44.4905 33.2023C42.9646 32.1931 41.1426 31.7284 39.3197 31.8835C37.4968 32.0386 35.7796 32.8044 34.446 34.0569C33.1125 35.3094 32.2407 36.9753 31.9718 38.7849C31.7028 40.5946 32.0525 42.442 32.9642 44.0282C33.8759 45.6143 35.2963 46.8464 36.9953 47.5248C38.6944 48.2033 40.5727 48.2885 42.3262 47.7667C44.0797 47.2448 45.6057 46.1464 46.6573 44.6493C47.7088 43.1522 48.2244 41.344 48.1204 39.5174C48.1084 39.304 48.1385 39.0904 48.2091 38.8886C48.2797 38.6869 48.3893 38.501 48.5317 38.3416C48.6741 38.1822 48.8465 38.0525 49.0391 37.9597C49.2316 37.8669 49.4406 37.813 49.654 37.801C50.0849 37.7768 50.5079 37.9247 50.8298 38.2123C50.9892 38.3547 51.1189 38.5272 51.2117 38.7197C51.3045 38.9123 51.3584 39.1212 51.3704 39.3346C51.5185 41.9199 50.7801 44.4784 49.2772 46.5872C47.7742 48.696 45.5967 50.2289 43.1045 50.9325C40.6124 51.6361 37.9547 51.4682 35.5709 50.4567C33.187 49.4452 31.2197 47.6506 29.9939 45.3695C28.7682 43.0884 28.3575 40.4573 28.8297 37.9112C29.3019 35.365 30.6288 33.0562 32.5909 31.3663C34.5531 29.6764 37.0332 28.7066 39.6212 28.6172C42.2092 28.5277 44.7503 29.324 46.8244 30.8745L51.4455 26.2534C48.059 23.4417 43.7531 21.9804 39.3548 22.15C34.9565 22.3196 30.776 24.1083 27.6161 27.1724C24.4562 30.2366 22.5398 34.3602 22.235 38.7512C21.9302 43.1422 23.2584 47.491 25.9646 50.9623C28.6708 54.4337 32.5641 56.7828 36.8968 57.5586C41.2295 58.3343 45.696 57.4819 49.4385 55.1651C53.181 52.8484 55.9356 49.2305 57.1732 45.0066C58.4109 40.7826 58.0443 36.2502 56.1438 32.2801C55.958 31.8911 55.9342 31.4443 56.0778 31.0378C56.2214 30.6314 56.5206 30.2986 56.9096 30.1127C57.2986 29.9269 57.7454 29.9031 58.1519 30.0468C58.5583 30.1904 58.8911 30.4896 59.0769 30.8785Z" fill="white"/>
</g>
<defs>
<filter id="filter0_ii_158_1529" x="-6" y="-6" width="92" height="92" filterUnits="userSpaceOnUse" color-interpolation-filters="sRGB">
<feFlood flood-opacity="0" result="BackgroundImageFix"/>
<feBlend mode="normal" in="SourceGraphic" in2="BackgroundImageFix" result="shape"/>
<feColorMatrix in="SourceAlpha" type="matrix" values="0 0 0 0 0 0 0 0 0 0 0 0 0 0 0 0 0 0 127 0" result="hardAlpha"/>
<feOffset dx="-6" dy="-6"/>
<feGaussianBlur stdDeviation="12"/>
<feComposite in2="hardAlpha" operator="arithmetic" k2="-1" k3="1"/>
<feColorMatrix type="matrix" values="0 0 0 0 0 0 0 0 0 0 0 0 0 0 0 0 0 0 0.5 0"/>
<feBlend mode="multiply" in2="shape" result="effect1_innerShadow_158_1529"/>
<feColorMatrix in="SourceAlpha" type="matrix" values="0 0 0 0 0 0 0 0 0 0 0 0 0 0 0 0 0 0 127 0" result="hardAlpha"/>
<feOffset dx="6" dy="6"/>
<feGaussianBlur stdDeviation="8"/>
<feComposite in2="hardAlpha" operator="arithmetic" k2="-1" k3="1"/>
<feColorMatrix type="matrix" values="0 0 0 0 1 0 0 0 0 1 0 0 0 0 1 0 0 0 0.35 0"/>
<feBlend mode="plus-lighter" in2="effect1_innerShadow_158_1529" result="effect2_innerShadow_158_1529"/>
</filter>
</defs>
</svg>
