<svg width="160" height="160" viewBox="0 0 160 160" fill="none" xmlns="http://www.w3.org/2000/svg">
<g filter="url(#filter0_dii_7_201)">
<rect x="40" y="40" width="80" height="80" rx="12" fill="#0040FF" shape-rendering="crispEdges"/>
<path d="M98.9615 75.1474C98.5364 75.2185 98.157 75.4556 97.9068 75.8064C97.6565 76.1572 97.5558 76.5931 97.6269 77.0181C97.7919 78.0035 97.8748 79.0009 97.8747 80C97.8786 84.3757 96.2704 88.5995 93.3572 91.8646C91.5449 89.2383 88.9965 87.2065 86.0326 86.0247C87.6247 84.7707 88.7865 83.0517 89.3564 81.1068C89.9262 79.1619 89.8759 77.0878 89.2123 75.1729C88.5487 73.2579 87.3049 71.5973 85.6538 70.4221C84.0027 69.2468 82.0264 68.6152 79.9997 68.6152C77.9731 68.6152 75.9968 69.2468 74.3457 70.4221C72.6946 71.5973 71.4508 73.2579 70.7872 75.1729C70.1236 77.0878 70.0733 79.1619 70.6431 81.1068C71.213 83.0517 72.3748 84.7707 73.9669 86.0247C71.003 87.2065 68.4546 89.2383 66.6422 91.8646C64.3565 89.2889 62.8635 86.1077 62.3426 82.7037C61.8217 79.2997 62.2952 75.8176 63.7062 72.6763C65.1171 69.5349 67.4054 66.868 70.2959 64.9962C73.1864 63.1244 76.5561 62.1274 79.9997 62.125C80.9989 62.1249 81.9962 62.2078 82.9816 62.3728C83.4048 62.4396 83.8371 62.3366 84.1847 62.0862C84.5323 61.8358 84.7669 61.4583 84.8376 61.0358C84.9083 60.6133 84.8093 60.18 84.5622 59.8301C84.315 59.4803 83.9397 59.2421 83.5179 59.1675C79.1049 58.4251 74.5701 59.1044 70.5683 61.1073C66.5665 63.1102 63.3048 66.3331 61.2541 70.3105C59.2034 74.288 58.4698 78.8143 59.1593 83.2359C59.8487 87.6575 61.9255 91.7456 65.0899 94.9099C68.2542 98.0742 72.3423 100.151 76.7638 100.841C81.1854 101.53 85.7117 100.796 89.6892 98.7457C93.6667 96.6949 96.8896 93.4332 98.8925 89.4315C100.895 85.4297 101.575 80.8949 100.832 76.4819C100.761 76.0569 100.524 75.6775 100.173 75.4272C99.8224 75.1769 99.3865 75.0763 98.9615 75.1474ZM73.4998 78.375C73.4998 77.0894 73.881 75.8327 74.5952 74.7638C75.3094 73.6949 76.3246 72.8618 77.5123 72.3698C78.7 71.8778 80.007 71.7491 81.2678 71.9999C82.5287 72.2507 83.6869 72.8698 84.5959 73.7788C85.505 74.6879 86.1241 75.8461 86.3749 77.1069C86.6257 78.3678 86.4969 79.6747 86.005 80.8625C85.513 82.0502 84.6799 83.0653 83.611 83.7796C82.542 84.4938 81.2853 84.875 79.9997 84.875C78.2758 84.875 76.6225 84.1902 75.4036 82.9712C74.1846 81.7522 73.4998 80.0989 73.4998 78.375ZM69.0472 94.1172C70.2228 92.2787 71.8423 90.7657 73.7563 89.7176C75.6704 88.6696 77.8175 88.1203 79.9997 88.1203C82.182 88.1203 84.3291 88.6696 86.2432 89.7176C88.1572 90.7657 89.7767 92.2787 90.9523 94.1172C87.8207 96.5527 83.9668 97.8749 79.9997 97.8749C76.0327 97.8749 72.1788 96.5527 69.0472 94.1172Z" fill="white"/>
<path d="M93.1119 60.3017C93.5093 59.4965 94.6574 59.4965 95.0548 60.3017L96.06 62.3383C96.2178 62.6581 96.5228 62.8797 96.8756 62.931L99.1233 63.2576C100.012 63.3867 100.367 64.4786 99.7237 65.1054L98.0973 66.6907C97.8419 66.9396 97.7254 67.2982 97.7857 67.6496L98.1696 69.8881C98.3214 70.7731 97.3925 71.448 96.5978 71.0302L94.5875 69.9733C94.2719 69.8074 93.8948 69.8074 93.5792 69.9733L91.5689 71.0302C90.7741 71.448 89.8452 70.7731 89.997 69.8881L90.381 67.6496C90.4412 67.2982 90.3247 66.9396 90.0694 66.6907L88.443 65.1054C87.8 64.4786 88.1548 63.3867 89.0434 63.2576L91.291 62.931C91.6439 62.8797 91.9489 62.6581 92.1067 62.3383L93.1119 60.3017Z" fill="white"/>
</g>
<defs>
<filter id="filter0_dii_7_201" x="0" y="0" width="160" height="160" filterUnits="userSpaceOnUse" color-interpolation-filters="sRGB">
<feFlood flood-opacity="0" result="BackgroundImageFix"/>
<feColorMatrix in="SourceAlpha" type="matrix" values="0 0 0 0 0 0 0 0 0 0 0 0 0 0 0 0 0 0 127 0" result="hardAlpha"/>
<feOffset/>
<feGaussianBlur stdDeviation="20"/>
<feComposite in2="hardAlpha" operator="out"/>
<feColorMatrix type="matrix" values="0 0 0 0 0 0 0 0 0 0.25 0 0 0 0 1 0 0 0 0.6 0"/>
<feBlend mode="normal" in2="BackgroundImageFix" result="effect1_dropShadow_7_201"/>
<feBlend mode="normal" in="SourceGraphic" in2="effect1_dropShadow_7_201" result="shape"/>
<feColorMatrix in="SourceAlpha" type="matrix" values="0 0 0 0 0 0 0 0 0 0 0 0 0 0 0 0 0 0 127 0" result="hardAlpha"/>
<feOffset dx="-6" dy="-6"/>
<feGaussianBlur stdDeviation="12"/>
<feComposite in2="hardAlpha" operator="arithmetic" k2="-1" k3="1"/>
<feColorMatrix type="matrix" values="0 0 0 0 0 0 0 0 0 0 0 0 0 0 0 0 0 0 0.5 0"/>
<feBlend mode="multiply" in2="shape" result="effect2_innerShadow_7_201"/>
<feColorMatrix in="SourceAlpha" type="matrix" values="0 0 0 0 0 0 0 0 0 0 0 0 0 0 0 0 0 0 127 0" result="hardAlpha"/>
<feOffset dx="6" dy="6"/>
<feGaussianBlur stdDeviation="8"/>
<feComposite in2="hardAlpha" operator="arithmetic" k2="-1" k3="1"/>
<feColorMatrix type="matrix" values="0 0 0 0 1 0 0 0 0 1 0 0 0 0 1 0 0 0 0.35 0"/>
<feBlend mode="plus-lighter" in2="effect2_innerShadow_7_201" result="effect3_innerShadow_7_201"/>
</filter>
</defs>
</svg>
