<svg width="160" height="160" viewBox="0 0 160 160" fill="none" xmlns="http://www.w3.org/2000/svg">
<g filter="url(#filter0_dii_7_210)">
<rect x="40" y="40" width="80" height="80" rx="12" fill="#0040FF" shape-rendering="crispEdges"/>
<path d="M80 58.875C75.8219 58.875 71.7376 60.114 68.2636 62.4352C64.7896 64.7564 62.082 68.0557 60.4831 71.9158C58.8842 75.7759 58.4658 80.0234 59.2809 84.1213C60.096 88.2191 62.108 91.9832 65.0624 94.9376C68.0168 97.892 71.7809 99.904 75.8787 100.719C79.9766 101.534 84.2241 101.116 88.0842 99.517C91.9443 97.918 95.2436 95.2104 97.5648 91.7364C99.886 88.2624 101.125 84.1781 101.125 80C101.119 74.3991 98.8915 69.0293 94.9311 65.0689C90.9707 61.1085 85.6009 58.8809 80 58.875ZM80 97.875C76.4647 97.875 73.0087 96.8266 70.0692 94.8625C67.1297 92.8984 64.8386 90.1067 63.4857 86.8405C62.1327 83.5742 61.7788 79.9802 62.4685 76.5128C63.1582 73.0453 64.8606 69.8603 67.3605 67.3605C69.8603 64.8606 73.0454 63.1582 76.5128 62.4685C79.9802 61.7788 83.5742 62.1327 86.8405 63.4857C90.1067 64.8386 92.8984 67.1297 94.8625 70.0692C96.8267 73.0087 97.875 76.4647 97.875 80C97.8696 84.7391 95.9847 89.2825 92.6336 92.6336C89.2826 95.9846 84.7391 97.8696 80 97.875ZM88.125 84.0625C88.125 85.5709 87.5258 87.0176 86.4592 88.0842C85.3926 89.1508 83.9459 89.75 82.4375 89.75H81.625V91.375C81.625 91.806 81.4538 92.2193 81.1491 92.524C80.8443 92.8288 80.431 93 80 93C79.569 93 79.1557 92.8288 78.851 92.524C78.5462 92.2193 78.375 91.806 78.375 91.375V89.75H75.125C74.694 89.75 74.2807 89.5788 73.976 89.274C73.6712 88.9693 73.5 88.556 73.5 88.125C73.5 87.694 73.6712 87.2807 73.976 86.9759C74.2807 86.6712 74.694 86.5 75.125 86.5H82.4375C83.084 86.5 83.704 86.2432 84.1611 85.7861C84.6182 85.3289 84.875 84.709 84.875 84.0625C84.875 83.416 84.6182 82.796 84.1611 82.3389C83.704 81.8818 83.084 81.625 82.4375 81.625H77.5625C76.0541 81.625 74.6075 81.0258 73.5408 79.9592C72.4742 78.8926 71.875 77.4459 71.875 75.9375C71.875 74.4291 72.4742 72.9824 73.5408 71.9158C74.6075 70.8492 76.0541 70.25 77.5625 70.25H78.375V68.625C78.375 68.194 78.5462 67.7807 78.851 67.476C79.1557 67.1712 79.569 67 80 67C80.431 67 80.8443 67.1712 81.1491 67.476C81.4538 67.7807 81.625 68.194 81.625 68.625V70.25H84.875C85.306 70.25 85.7193 70.4212 86.0241 70.726C86.3288 71.0307 86.5 71.444 86.5 71.875C86.5 72.306 86.3288 72.7193 86.0241 73.024C85.7193 73.3288 85.306 73.5 84.875 73.5H77.5625C76.916 73.5 76.2961 73.7568 75.8389 74.2139C75.3818 74.671 75.125 75.291 75.125 75.9375C75.125 76.584 75.3818 77.204 75.8389 77.6611C76.2961 78.1182 76.916 78.375 77.5625 78.375H82.4375C83.9459 78.375 85.3926 78.9742 86.4592 80.0408C87.5258 81.1074 88.125 82.5541 88.125 84.0625Z" fill="white"/>
</g>
<defs>
<filter id="filter0_dii_7_210" x="0" y="0" width="160" height="160" filterUnits="userSpaceOnUse" color-interpolation-filters="sRGB">
<feFlood flood-opacity="0" result="BackgroundImageFix"/>
<feColorMatrix in="SourceAlpha" type="matrix" values="0 0 0 0 0 0 0 0 0 0 0 0 0 0 0 0 0 0 127 0" result="hardAlpha"/>
<feOffset/>
<feGaussianBlur stdDeviation="20"/>
<feComposite in2="hardAlpha" operator="out"/>
<feColorMatrix type="matrix" values="0 0 0 0 0 0 0 0 0 0.25 0 0 0 0 1 0 0 0 0.6 0"/>
<feBlend mode="normal" in2="BackgroundImageFix" result="effect1_dropShadow_7_210"/>
<feBlend mode="normal" in="SourceGraphic" in2="effect1_dropShadow_7_210" result="shape"/>
<feColorMatrix in="SourceAlpha" type="matrix" values="0 0 0 0 0 0 0 0 0 0 0 0 0 0 0 0 0 0 127 0" result="hardAlpha"/>
<feOffset dx="-6" dy="-6"/>
<feGaussianBlur stdDeviation="12"/>
<feComposite in2="hardAlpha" operator="arithmetic" k2="-1" k3="1"/>
<feColorMatrix type="matrix" values="0 0 0 0 0 0 0 0 0 0 0 0 0 0 0 0 0 0 0.5 0"/>
<feBlend mode="multiply" in2="shape" result="effect2_innerShadow_7_210"/>
<feColorMatrix in="SourceAlpha" type="matrix" values="0 0 0 0 0 0 0 0 0 0 0 0 0 0 0 0 0 0 127 0" result="hardAlpha"/>
<feOffset dx="6" dy="6"/>
<feGaussianBlur stdDeviation="8"/>
<feComposite in2="hardAlpha" operator="arithmetic" k2="-1" k3="1"/>
<feColorMatrix type="matrix" values="0 0 0 0 1 0 0 0 0 1 0 0 0 0 1 0 0 0 0.35 0"/>
<feBlend mode="plus-lighter" in2="effect2_innerShadow_7_210" result="effect3_innerShadow_7_210"/>
</filter>
</defs>
</svg>
