<svg width="160" height="160" viewBox="0 0 160 160" fill="none" xmlns="http://www.w3.org/2000/svg">
<g filter="url(#filter0_dii_7_214)">
<rect x="40" y="40" width="80" height="80" rx="12" fill="#0040FF" shape-rendering="crispEdges"/>
<path d="M93.8125 77.5625C93.8125 78.0446 93.6695 78.5159 93.4017 78.9167C93.1339 79.3175 92.7532 79.63 92.3078 79.8145C91.8624 79.9989 91.3723 80.0472 90.8995 79.9532C90.4266 79.8591 89.9923 79.627 89.6514 79.2861C89.3105 78.9452 89.0784 78.5109 88.9843 78.038C88.8903 77.5652 88.9386 77.0751 89.123 76.6297C89.3075 76.1843 89.62 75.8036 90.0208 75.5358C90.4216 75.268 90.8929 75.125 91.375 75.125C92.0215 75.125 92.6415 75.3818 93.0986 75.8389C93.5557 76.296 93.8125 76.916 93.8125 77.5625ZM85.6875 67H77.5625C77.1315 67 76.7182 67.1712 76.4135 67.476C76.1087 67.7807 75.9375 68.194 75.9375 68.625C75.9375 69.056 76.1087 69.4693 76.4135 69.774C76.7182 70.0788 77.1315 70.25 77.5625 70.25H85.6875C86.1185 70.25 86.5318 70.0788 86.8366 69.774C87.1413 69.4693 87.3125 69.056 87.3125 68.625C87.3125 68.194 87.1413 67.7807 86.8366 67.476C86.5318 67.1712 86.1185 67 85.6875 67ZM105.188 76.75V83.25C105.188 84.5429 104.674 85.7829 103.76 86.6971C102.845 87.6114 101.605 88.125 100.313 88.125H99.8331L96.5405 97.3428C96.315 97.9742 95.8999 98.5204 95.3519 98.9066C94.8038 99.2928 94.1498 99.5001 93.4794 99.5H90.8956C90.2252 99.5001 89.5712 99.2928 89.0232 98.9066C88.4751 98.5204 88.06 97.9742 87.8345 97.3428L87.4445 96.25H75.8055L75.4155 97.3428C75.19 97.9742 74.7749 98.5204 74.2269 98.9066C73.6788 99.2928 73.0248 99.5001 72.3544 99.5H69.7706C69.1002 99.5001 68.4462 99.2928 67.8982 98.9066C67.3501 98.5204 66.935 97.9742 66.7095 97.3428L64.1563 90.2009C61.7272 87.4518 60.2063 84.0198 59.8013 80.3737C59.2768 80.6492 58.8377 81.0627 58.5312 81.5697C58.2248 82.0766 58.0627 82.6576 58.0625 83.25C58.0625 83.681 57.8913 84.0943 57.5865 84.399C57.2818 84.7038 56.8685 84.875 56.4375 84.875C56.0065 84.875 55.5932 84.7038 55.2885 84.399C54.9837 84.0943 54.8125 83.681 54.8125 83.25C54.815 81.8008 55.3017 80.3941 56.1952 79.2532C57.0888 78.1123 58.338 77.3027 59.7444 76.9531C60.1074 72.4749 62.1413 68.2969 65.4422 65.2489C68.7431 62.2009 73.0696 60.5057 77.5625 60.5H98.6875C99.1185 60.5 99.5318 60.6712 99.8366 60.976C100.141 61.2807 100.313 61.694 100.313 62.125C100.313 62.556 100.141 62.9693 99.8366 63.274C99.5318 63.5788 99.1185 63.75 98.6875 63.75H94.3427C97.0394 65.6421 99.1604 68.2432 100.471 71.2656C100.558 71.4688 100.644 71.6719 100.725 71.875C101.945 71.9786 103.082 72.5376 103.908 73.4408C104.735 74.3441 105.192 75.5254 105.188 76.75ZM101.938 76.75C101.938 76.319 101.766 75.9057 101.462 75.601C101.157 75.2962 100.743 75.125 100.313 75.125H99.5691C99.223 75.1254 98.8858 75.0152 98.6067 74.8106C98.3275 74.606 98.121 74.3176 98.0172 73.9875C97.0862 71.0165 95.23 68.4207 92.7196 66.579C90.2093 64.7373 87.176 63.7461 84.0625 63.75H77.5625C74.7243 63.7499 71.9473 64.5756 69.5703 66.1264C67.1932 67.6773 65.3188 69.8864 64.1756 72.4842C63.0324 75.082 62.6698 77.9563 63.132 80.7567C63.5942 83.557 64.8612 86.1623 66.7786 88.255C66.9252 88.4145 67.0385 88.6016 67.1117 88.8055L69.7706 96.25H72.3544L73.1303 94.0786C73.243 93.7631 73.4504 93.4901 73.7242 93.297C73.998 93.1039 74.3248 93.0002 74.6598 93H88.5902C88.9252 93.0002 89.252 93.1039 89.5258 93.297C89.7996 93.4901 90.007 93.7631 90.1197 94.0786L90.8956 96.25H93.4794L97.158 85.9536C97.2706 85.6381 97.4781 85.3651 97.7519 85.172C98.0257 84.9789 98.3525 84.8752 98.6875 84.875H100.313C100.743 84.875 101.157 84.7038 101.462 84.399C101.766 84.0943 101.938 83.681 101.938 83.25V76.75Z" fill="white"/>
</g>
<defs>
<filter id="filter0_dii_7_214" x="0" y="0" width="160" height="160" filterUnits="userSpaceOnUse" color-interpolation-filters="sRGB">
<feFlood flood-opacity="0" result="BackgroundImageFix"/>
<feColorMatrix in="SourceAlpha" type="matrix" values="0 0 0 0 0 0 0 0 0 0 0 0 0 0 0 0 0 0 127 0" result="hardAlpha"/>
<feOffset/>
<feGaussianBlur stdDeviation="20"/>
<feComposite in2="hardAlpha" operator="out"/>
<feColorMatrix type="matrix" values="0 0 0 0 0 0 0 0 0 0.25 0 0 0 0 1 0 0 0 0.6 0"/>
<feBlend mode="normal" in2="BackgroundImageFix" result="effect1_dropShadow_7_214"/>
<feBlend mode="normal" in="SourceGraphic" in2="effect1_dropShadow_7_214" result="shape"/>
<feColorMatrix in="SourceAlpha" type="matrix" values="0 0 0 0 0 0 0 0 0 0 0 0 0 0 0 0 0 0 127 0" result="hardAlpha"/>
<feOffset dx="-6" dy="-6"/>
<feGaussianBlur stdDeviation="12"/>
<feComposite in2="hardAlpha" operator="arithmetic" k2="-1" k3="1"/>
<feColorMatrix type="matrix" values="0 0 0 0 0 0 0 0 0 0 0 0 0 0 0 0 0 0 0.5 0"/>
<feBlend mode="multiply" in2="shape" result="effect2_innerShadow_7_214"/>
<feColorMatrix in="SourceAlpha" type="matrix" values="0 0 0 0 0 0 0 0 0 0 0 0 0 0 0 0 0 0 127 0" result="hardAlpha"/>
<feOffset dx="6" dy="6"/>
<feGaussianBlur stdDeviation="8"/>
<feComposite in2="hardAlpha" operator="arithmetic" k2="-1" k3="1"/>
<feColorMatrix type="matrix" values="0 0 0 0 1 0 0 0 0 1 0 0 0 0 1 0 0 0 0.35 0"/>
<feBlend mode="plus-lighter" in2="effect2_innerShadow_7_214" result="effect3_innerShadow_7_214"/>
</filter>
</defs>
</svg>
