<svg width="160" height="160" viewBox="0 0 160 160" fill="none" xmlns="http://www.w3.org/2000/svg">
<g filter="url(#filter0_dii_7_205)">
<rect x="40" y="40" width="80" height="80" rx="12" fill="#0040FF" shape-rendering="crispEdges"/>
<path d="M99.0769 70.8788C101.332 75.5949 101.76 80.9792 100.279 85.9924C98.7971 91.0056 95.5112 95.2924 91.055 98.0254C86.5988 100.758 81.2882 101.744 76.1481 100.792C71.0081 99.8393 66.403 97.0168 63.2216 92.8688C60.0402 88.7209 58.508 83.5415 58.9208 78.3303C59.3336 73.1191 61.6621 68.2455 65.4569 64.6501C69.2517 61.0548 74.2437 58.9925 79.4696 58.8614C84.6955 58.7303 89.7847 60.5395 93.7551 63.94L98.3599 59.3331C98.6648 59.0282 99.0784 58.8569 99.5096 58.8569C99.9408 58.8569 100.354 59.0282 100.659 59.3331C100.964 59.6381 101.136 60.0516 101.136 60.4828C101.136 60.914 100.964 61.3276 100.659 61.6325L81.1593 81.1325C80.8544 81.4374 80.4408 81.6087 80.0096 81.6087C79.5784 81.6087 79.1648 81.4374 78.8599 81.1325C78.555 80.8276 78.3837 80.414 78.3837 79.9828C78.3837 79.5516 78.555 79.1381 78.8599 78.8331L84.4905 73.2025C82.9646 72.1933 81.1426 71.7286 79.3197 71.8837C77.4968 72.0388 75.7796 72.8046 74.446 74.0571C73.1125 75.3096 72.2407 76.9755 71.9718 78.7852C71.7028 80.5948 72.0525 82.4422 72.9642 84.0284C73.8759 85.6146 75.2963 86.8466 76.9953 87.5251C78.6944 88.2036 80.5727 88.2888 82.3262 87.7669C84.0797 87.245 85.6057 86.1466 86.6573 84.6495C87.7088 83.1524 88.2244 81.3442 88.1204 79.5177C88.1084 79.3043 88.1385 79.0906 88.2091 78.8889C88.2797 78.6871 88.3893 78.5012 88.5317 78.3419C88.6741 78.1825 88.8465 78.0527 89.0391 77.9599C89.2316 77.8672 89.4406 77.8133 89.654 77.8013C90.0849 77.777 90.5079 77.925 90.8298 78.2126C90.9892 78.355 91.1189 78.5274 91.2117 78.72C91.3045 78.9125 91.3584 79.1215 91.3704 79.3349C91.5185 81.9202 90.7801 84.4787 89.2772 86.5875C87.7742 88.6963 85.5967 90.2291 83.1045 90.9327C80.6124 91.6363 77.9547 91.4685 75.5709 90.457C73.187 89.4455 71.2197 87.6509 69.9939 85.3697C68.7682 83.0886 68.3575 80.4576 68.8297 77.9114C69.3019 75.3652 70.6288 73.0564 72.5909 71.3665C74.5531 69.6766 77.0332 68.7068 79.6212 68.6174C82.2092 68.528 84.7503 69.3243 86.8244 70.8747L91.4455 66.2536C88.059 63.4419 83.7531 61.9806 79.3548 62.1502C74.9565 62.3199 70.776 64.1085 67.6161 67.1727C64.4562 70.2368 62.5398 74.3604 62.235 78.7514C61.9302 83.1424 63.2584 87.4912 65.9646 90.9626C68.6708 94.4339 72.5641 96.7831 76.8968 97.5588C81.2295 98.3345 85.696 97.4822 89.4385 95.1654C93.181 92.8486 95.9356 89.2308 97.1732 85.0068C98.4109 80.7828 98.0443 76.2505 96.1438 72.2803C95.958 71.8914 95.9342 71.4445 96.0778 71.0381C96.2214 70.6316 96.5206 70.2988 96.9096 70.113C97.2986 69.9271 97.7454 69.9034 98.1519 70.047C98.5583 70.1906 98.8911 70.4898 99.0769 70.8788Z" fill="white"/>
</g>
<defs>
<filter id="filter0_dii_7_205" x="0" y="0" width="160" height="160" filterUnits="userSpaceOnUse" color-interpolation-filters="sRGB">
<feFlood flood-opacity="0" result="BackgroundImageFix"/>
<feColorMatrix in="SourceAlpha" type="matrix" values="0 0 0 0 0 0 0 0 0 0 0 0 0 0 0 0 0 0 127 0" result="hardAlpha"/>
<feOffset/>
<feGaussianBlur stdDeviation="20"/>
<feComposite in2="hardAlpha" operator="out"/>
<feColorMatrix type="matrix" values="0 0 0 0 0 0 0 0 0 0.25 0 0 0 0 1 0 0 0 0.6 0"/>
<feBlend mode="normal" in2="BackgroundImageFix" result="effect1_dropShadow_7_205"/>
<feBlend mode="normal" in="SourceGraphic" in2="effect1_dropShadow_7_205" result="shape"/>
<feColorMatrix in="SourceAlpha" type="matrix" values="0 0 0 0 0 0 0 0 0 0 0 0 0 0 0 0 0 0 127 0" result="hardAlpha"/>
<feOffset dx="-6" dy="-6"/>
<feGaussianBlur stdDeviation="12"/>
<feComposite in2="hardAlpha" operator="arithmetic" k2="-1" k3="1"/>
<feColorMatrix type="matrix" values="0 0 0 0 0 0 0 0 0 0 0 0 0 0 0 0 0 0 0.5 0"/>
<feBlend mode="multiply" in2="shape" result="effect2_innerShadow_7_205"/>
<feColorMatrix in="SourceAlpha" type="matrix" values="0 0 0 0 0 0 0 0 0 0 0 0 0 0 0 0 0 0 127 0" result="hardAlpha"/>
<feOffset dx="6" dy="6"/>
<feGaussianBlur stdDeviation="8"/>
<feComposite in2="hardAlpha" operator="arithmetic" k2="-1" k3="1"/>
<feColorMatrix type="matrix" values="0 0 0 0 1 0 0 0 0 1 0 0 0 0 1 0 0 0 0.35 0"/>
<feBlend mode="plus-lighter" in2="effect2_innerShadow_7_205" result="effect3_innerShadow_7_205"/>
</filter>
</defs>
</svg>
