<svg width="18" height="19" viewBox="0 0 18 19" fill="none" xmlns="http://www.w3.org/2000/svg">
<path d="M12.9513 6.93327C13.0157 6.99756 13.0668 7.07392 13.1016 7.15796C13.1365 7.24201 13.1544 7.3321 13.1544 7.42308C13.1544 7.51406 13.1365 7.60414 13.1016 7.68819C13.0668 7.77223 13.0157 7.84859 12.9513 7.91288L8.10519 12.759C8.0409 12.8234 7.96454 12.8745 7.8805 12.9093C7.79645 12.9441 7.70637 12.9621 7.61539 12.9621C7.52441 12.9621 7.43432 12.9441 7.35027 12.9093C7.26623 12.8745 7.18988 12.8234 7.12558 12.759L5.04866 10.6821C4.91875 10.5522 4.84577 10.376 4.84577 10.1923C4.84577 10.0086 4.91875 9.8324 5.04866 9.7025C5.17856 9.57259 5.35475 9.49961 5.53846 9.49961C5.72218 9.49961 5.89837 9.57259 6.02827 9.7025L7.61539 11.2905L11.9717 6.93327C12.036 6.8689 12.1124 6.81784 12.1964 6.783C12.2805 6.74816 12.3706 6.73022 12.4615 6.73022C12.5525 6.73022 12.6426 6.74816 12.7267 6.783C12.8107 6.81784 12.8871 6.8689 12.9513 6.93327ZM18 9.5C18 11.28 17.4722 13.0201 16.4832 14.5001C15.4943 15.9802 14.0887 17.1337 12.4442 17.8149C10.7996 18.4961 8.99002 18.6743 7.24419 18.3271C5.49836 17.9798 3.89471 17.1226 2.63604 15.864C1.37737 14.6053 0.520203 13.0016 0.172937 11.2558C-0.17433 9.50998 0.00389956 7.70038 0.685088 6.05585C1.36628 4.41131 2.51983 3.00571 3.99987 2.01677C5.47991 1.02784 7.21997 0.5 9 0.5C11.3862 0.50252 13.6739 1.45154 15.3612 3.13882C17.0485 4.8261 17.9975 7.11382 18 9.5ZM16.6154 9.5C16.6154 7.99382 16.1688 6.52146 15.332 5.26912C14.4952 4.01677 13.3058 3.04069 11.9143 2.4643C10.5228 1.88791 8.99155 1.7371 7.51431 2.03094C6.03708 2.32478 4.68014 3.05008 3.61511 4.11511C2.55008 5.18014 1.82479 6.53707 1.53095 8.01431C1.23711 9.49155 1.38792 11.0228 1.96431 12.4143C2.5407 13.8058 3.51678 14.9952 4.76912 15.832C6.02146 16.6687 7.49382 17.1154 9 17.1154C11.019 17.1131 12.9547 16.31 14.3824 14.8824C15.81 13.4547 16.6131 11.519 16.6154 9.5Z" fill="#0040FF"/>
<path d="M12.9513 6.93327C13.0157 6.99756 13.0668 7.07392 13.1016 7.15796C13.1365 7.24201 13.1544 7.3321 13.1544 7.42308C13.1544 7.51406 13.1365 7.60414 13.1016 7.68819C13.0668 7.77223 13.0157 7.84859 12.9513 7.91288L8.10519 12.759C8.0409 12.8234 7.96454 12.8745 7.8805 12.9093C7.79645 12.9441 7.70637 12.9621 7.61539 12.9621C7.52441 12.9621 7.43432 12.9441 7.35027 12.9093C7.26623 12.8745 7.18988 12.8234 7.12558 12.759L5.04866 10.6821C4.91875 10.5522 4.84577 10.376 4.84577 10.1923C4.84577 10.0086 4.91875 9.8324 5.04866 9.7025C5.17856 9.57259 5.35475 9.49961 5.53846 9.49961C5.72218 9.49961 5.89837 9.57259 6.02827 9.7025L7.61539 11.2905L11.9717 6.93327C12.036 6.8689 12.1124 6.81784 12.1964 6.783C12.2805 6.74816 12.3706 6.73022 12.4615 6.73022C12.5525 6.73022 12.6426 6.74816 12.7267 6.783C12.8107 6.81784 12.8871 6.8689 12.9513 6.93327ZM18 9.5C18 11.28 17.4722 13.0201 16.4832 14.5001C15.4943 15.9802 14.0887 17.1337 12.4442 17.8149C10.7996 18.4961 8.99002 18.6743 7.24419 18.3271C5.49836 17.9798 3.89471 17.1226 2.63604 15.864C1.37737 14.6053 0.520203 13.0016 0.172937 11.2558C-0.17433 9.50998 0.00389956 7.70038 0.685088 6.05585C1.36628 4.41131 2.51983 3.00571 3.99987 2.01677C5.47991 1.02784 7.21997 0.5 9 0.5C11.3862 0.50252 13.6739 1.45154 15.3612 3.13882C17.0485 4.8261 17.9975 7.11382 18 9.5ZM16.6154 9.5C16.6154 7.99382 16.1688 6.52146 15.332 5.26912C14.4952 4.01677 13.3058 3.04069 11.9143 2.4643C10.5228 1.88791 8.99155 1.7371 7.51431 2.03094C6.03708 2.32478 4.68014 3.05008 3.61511 4.11511C2.55008 5.18014 1.82479 6.53707 1.53095 8.01431C1.23711 9.49155 1.38792 11.0228 1.96431 12.4143C2.5407 13.8058 3.51678 14.9952 4.76912 15.832C6.02146 16.6687 7.49382 17.1154 9 17.1154C11.019 17.1131 12.9547 16.31 14.3824 14.8824C15.81 13.4547 16.6131 11.519 16.6154 9.5Z" fill="url(#paint0_linear_7_449)"/>
<defs>
<linearGradient id="paint0_linear_7_449" x1="5" y1="19" x2="22.3178" y2="15.0813" gradientUnits="userSpaceOnUse">
<stop stop-color="#0D34FF"/>
<stop offset="1" stop-color="#00ABEB"/>
</linearGradient>
</defs>
</svg>
